<mxfile host="app.diagrams.net" modified="2022-09-22T13:55:16.701Z" agent="5.0 (Macintosh; Intel Mac OS X 10_15_7) AppleWebKit/537.36 (KHTML, like Gecko) Chrome/105.0.0.0 Safari/537.36" etag="bw_zzJPW0TZwHetHB-Z7" version="20.3.3" type="github">
  <diagram id="JZQhA0O_mQ5Fezpy2MEc" name="Page-1">
    <mxGraphModel dx="788" dy="536" grid="1" gridSize="10" guides="1" tooltips="1" connect="1" arrows="1" fold="1" page="1" pageScale="1" pageWidth="850" pageHeight="1100" math="0" shadow="0">
      <root>
        <mxCell id="0" />
        <mxCell id="1" parent="0" />
        <mxCell id="woSUaVrUEuRAHz5BIxBc-1" value="&lt;font style=&quot;font-size: 16px;&quot;&gt;Stack&lt;/font&gt;" style="text;html=1;strokeColor=none;fillColor=none;align=center;verticalAlign=middle;whiteSpace=wrap;rounded=0;" vertex="1" parent="1">
          <mxGeometry x="200" y="130" width="60" height="30" as="geometry" />
        </mxCell>
        <mxCell id="woSUaVrUEuRAHz5BIxBc-2" value="&lt;font style=&quot;font-size: 16px;&quot;&gt;Heap&lt;/font&gt;" style="text;html=1;strokeColor=none;fillColor=none;align=center;verticalAlign=middle;whiteSpace=wrap;rounded=0;" vertex="1" parent="1">
          <mxGeometry x="530" y="130" width="60" height="30" as="geometry" />
        </mxCell>
        <mxCell id="woSUaVrUEuRAHz5BIxBc-3" value="" style="endArrow=none;dashed=1;html=1;rounded=0;fontSize=16;" edge="1" parent="1">
          <mxGeometry width="50" height="50" relative="1" as="geometry">
            <mxPoint x="400" y="770" as="sourcePoint" />
            <mxPoint x="400" y="160" as="targetPoint" />
          </mxGeometry>
        </mxCell>
        <mxCell id="woSUaVrUEuRAHz5BIxBc-6" value="" style="rounded=0;whiteSpace=wrap;html=1;fontSize=16;" vertex="1" parent="1">
          <mxGeometry x="110" y="180" width="250" height="280" as="geometry" />
        </mxCell>
        <mxCell id="woSUaVrUEuRAHz5BIxBc-7" value="" style="endArrow=none;html=1;rounded=0;fontSize=16;exitX=0;exitY=0.75;exitDx=0;exitDy=0;entryX=1;entryY=0.75;entryDx=0;entryDy=0;" edge="1" parent="1" source="woSUaVrUEuRAHz5BIxBc-6" target="woSUaVrUEuRAHz5BIxBc-6">
          <mxGeometry width="50" height="50" relative="1" as="geometry">
            <mxPoint x="290" y="390" as="sourcePoint" />
            <mxPoint x="340" y="340" as="targetPoint" />
          </mxGeometry>
        </mxCell>
        <mxCell id="woSUaVrUEuRAHz5BIxBc-8" value="&lt;font style=&quot;font-size: 14px;&quot;&gt;AR&lt;br&gt;main&lt;br&gt;&lt;/font&gt;" style="text;html=1;strokeColor=none;fillColor=none;align=center;verticalAlign=middle;whiteSpace=wrap;rounded=0;" vertex="1" parent="1">
          <mxGeometry x="40" y="305" width="60" height="30" as="geometry" />
        </mxCell>
        <mxCell id="woSUaVrUEuRAHz5BIxBc-9" value="&lt;font style=&quot;&quot;&gt;&lt;font style=&quot;font-size: 16px;&quot;&gt;args&lt;/font&gt;&lt;br&gt;&lt;/font&gt;" style="text;html=1;strokeColor=none;fillColor=none;align=center;verticalAlign=middle;whiteSpace=wrap;rounded=0;" vertex="1" parent="1">
          <mxGeometry x="200" y="410" width="60" height="30" as="geometry" />
        </mxCell>
        <mxCell id="woSUaVrUEuRAHz5BIxBc-12" value="" style="group" vertex="1" connectable="0" parent="1">
          <mxGeometry x="150" y="200" width="95" height="30" as="geometry" />
        </mxCell>
        <mxCell id="woSUaVrUEuRAHz5BIxBc-10" value="&lt;font style=&quot;font-size: 14px;&quot;&gt;array&lt;br&gt;&lt;/font&gt;" style="text;html=1;strokeColor=none;fillColor=none;align=center;verticalAlign=middle;whiteSpace=wrap;rounded=0;" vertex="1" parent="woSUaVrUEuRAHz5BIxBc-12">
          <mxGeometry width="60" height="30" as="geometry" />
        </mxCell>
        <mxCell id="woSUaVrUEuRAHz5BIxBc-11" value="" style="whiteSpace=wrap;html=1;aspect=fixed;fontSize=14;" vertex="1" parent="woSUaVrUEuRAHz5BIxBc-12">
          <mxGeometry x="65" width="30" height="30" as="geometry" />
        </mxCell>
        <mxCell id="woSUaVrUEuRAHz5BIxBc-22" value="" style="ellipse;whiteSpace=wrap;html=1;aspect=fixed;fontSize=16;fillColor=#000000;" vertex="1" parent="woSUaVrUEuRAHz5BIxBc-12">
          <mxGeometry x="75" y="10" width="10" height="10" as="geometry" />
        </mxCell>
        <mxCell id="woSUaVrUEuRAHz5BIxBc-13" value="" style="group" vertex="1" connectable="0" parent="1">
          <mxGeometry x="150" y="250" width="95" height="30" as="geometry" />
        </mxCell>
        <mxCell id="woSUaVrUEuRAHz5BIxBc-14" value="&lt;font style=&quot;font-size: 14px;&quot;&gt;matrix&lt;br&gt;&lt;/font&gt;" style="text;html=1;strokeColor=none;fillColor=none;align=center;verticalAlign=middle;whiteSpace=wrap;rounded=0;" vertex="1" parent="woSUaVrUEuRAHz5BIxBc-13">
          <mxGeometry width="60" height="30" as="geometry" />
        </mxCell>
        <mxCell id="woSUaVrUEuRAHz5BIxBc-15" value="" style="whiteSpace=wrap;html=1;aspect=fixed;fontSize=14;" vertex="1" parent="woSUaVrUEuRAHz5BIxBc-13">
          <mxGeometry x="65" width="30" height="30" as="geometry" />
        </mxCell>
        <mxCell id="woSUaVrUEuRAHz5BIxBc-23" value="" style="ellipse;whiteSpace=wrap;html=1;aspect=fixed;fontSize=16;fillColor=#000000;" vertex="1" parent="woSUaVrUEuRAHz5BIxBc-13">
          <mxGeometry x="75" y="10" width="10" height="10" as="geometry" />
        </mxCell>
        <mxCell id="woSUaVrUEuRAHz5BIxBc-16" value="" style="group" vertex="1" connectable="0" parent="1">
          <mxGeometry x="150" y="300" width="95" height="30" as="geometry" />
        </mxCell>
        <mxCell id="woSUaVrUEuRAHz5BIxBc-17" value="&lt;font style=&quot;font-size: 14px;&quot;&gt;myC1&lt;br&gt;&lt;/font&gt;" style="text;html=1;strokeColor=none;fillColor=none;align=center;verticalAlign=middle;whiteSpace=wrap;rounded=0;" vertex="1" parent="woSUaVrUEuRAHz5BIxBc-16">
          <mxGeometry width="60" height="30" as="geometry" />
        </mxCell>
        <mxCell id="woSUaVrUEuRAHz5BIxBc-18" value="" style="whiteSpace=wrap;html=1;aspect=fixed;fontSize=14;" vertex="1" parent="woSUaVrUEuRAHz5BIxBc-16">
          <mxGeometry x="65" width="30" height="30" as="geometry" />
        </mxCell>
        <mxCell id="woSUaVrUEuRAHz5BIxBc-24" value="" style="ellipse;whiteSpace=wrap;html=1;aspect=fixed;fontSize=16;fillColor=#000000;" vertex="1" parent="woSUaVrUEuRAHz5BIxBc-16">
          <mxGeometry x="75" y="10" width="10" height="10" as="geometry" />
        </mxCell>
        <mxCell id="woSUaVrUEuRAHz5BIxBc-19" value="" style="group" vertex="1" connectable="0" parent="1">
          <mxGeometry x="150" y="350" width="95" height="30" as="geometry" />
        </mxCell>
        <mxCell id="woSUaVrUEuRAHz5BIxBc-20" value="&lt;font style=&quot;font-size: 14px;&quot;&gt;myC2&lt;br&gt;&lt;/font&gt;" style="text;html=1;strokeColor=none;fillColor=none;align=center;verticalAlign=middle;whiteSpace=wrap;rounded=0;" vertex="1" parent="woSUaVrUEuRAHz5BIxBc-19">
          <mxGeometry width="60" height="30" as="geometry" />
        </mxCell>
        <mxCell id="woSUaVrUEuRAHz5BIxBc-21" value="" style="whiteSpace=wrap;html=1;aspect=fixed;fontSize=14;" vertex="1" parent="woSUaVrUEuRAHz5BIxBc-19">
          <mxGeometry x="65" width="30" height="30" as="geometry" />
        </mxCell>
        <mxCell id="woSUaVrUEuRAHz5BIxBc-25" value="" style="ellipse;whiteSpace=wrap;html=1;aspect=fixed;fontSize=16;fillColor=#000000;" vertex="1" parent="woSUaVrUEuRAHz5BIxBc-19">
          <mxGeometry x="75" y="10" width="10" height="10" as="geometry" />
        </mxCell>
        <mxCell id="woSUaVrUEuRAHz5BIxBc-40" value="" style="curved=1;endArrow=classic;html=1;rounded=0;fontSize=16;exitX=1;exitY=0.5;exitDx=0;exitDy=0;entryX=0;entryY=0.25;entryDx=0;entryDy=0;" edge="1" parent="1" source="woSUaVrUEuRAHz5BIxBc-22" target="woSUaVrUEuRAHz5BIxBc-37">
          <mxGeometry width="50" height="50" relative="1" as="geometry">
            <mxPoint x="290" y="400" as="sourcePoint" />
            <mxPoint x="340" y="350" as="targetPoint" />
            <Array as="points">
              <mxPoint x="340" y="190" />
              <mxPoint x="460" y="200" />
            </Array>
          </mxGeometry>
        </mxCell>
        <mxCell id="woSUaVrUEuRAHz5BIxBc-45" value="" style="group" vertex="1" connectable="0" parent="1">
          <mxGeometry x="500" y="170" width="130" height="70" as="geometry" />
        </mxCell>
        <mxCell id="woSUaVrUEuRAHz5BIxBc-41" value="0" style="text;html=1;strokeColor=none;fillColor=none;align=center;verticalAlign=middle;whiteSpace=wrap;rounded=0;fontSize=16;" vertex="1" parent="woSUaVrUEuRAHz5BIxBc-45">
          <mxGeometry x="10" width="20" height="30" as="geometry" />
        </mxCell>
        <mxCell id="woSUaVrUEuRAHz5BIxBc-43" value="1&lt;span style=&quot;color: rgba(0, 0, 0, 0); font-family: monospace; font-size: 0px; text-align: start;&quot;&gt;%3CmxGraphModel%3E%3Croot%3E%3CmxCell%20id%3D%220%22%2F%3E%3CmxCell%20id%3D%221%22%20parent%3D%220%22%2F%3E%3CmxCell%20id%3D%222%22%20value%3D%220%22%20style%3D%22text%3Bhtml%3D1%3BstrokeColor%3Dnone%3BfillColor%3Dnone%3Balign%3Dcenter%3BverticalAlign%3Dmiddle%3BwhiteSpace%3Dwrap%3Brounded%3D0%3BfontSize%3D16%3B%22%20vertex%3D%221%22%20parent%3D%221%22%3E%3CmxGeometry%20x%3D%22510%22%20y%3D%22170%22%20width%3D%2220%22%20height%3D%2230%22%20as%3D%22geometry%22%2F%3E%3C%2FmxCell%3E%3C%2Froot%3E%3C%2FmxGraphModel%3E&lt;/span&gt;" style="text;html=1;strokeColor=none;fillColor=none;align=center;verticalAlign=middle;whiteSpace=wrap;rounded=0;fontSize=16;" vertex="1" parent="woSUaVrUEuRAHz5BIxBc-45">
          <mxGeometry x="55" width="20" height="30" as="geometry" />
        </mxCell>
        <mxCell id="woSUaVrUEuRAHz5BIxBc-44" value="2" style="text;html=1;strokeColor=none;fillColor=none;align=center;verticalAlign=middle;whiteSpace=wrap;rounded=0;fontSize=16;" vertex="1" parent="woSUaVrUEuRAHz5BIxBc-45">
          <mxGeometry x="100" width="20" height="30" as="geometry" />
        </mxCell>
        <mxCell id="woSUaVrUEuRAHz5BIxBc-82" value="" style="group" vertex="1" connectable="0" parent="woSUaVrUEuRAHz5BIxBc-45">
          <mxGeometry y="30" width="130" height="40" as="geometry" />
        </mxCell>
        <mxCell id="woSUaVrUEuRAHz5BIxBc-34" value="" style="rounded=0;whiteSpace=wrap;html=1;fontSize=16;fillColor=#FFFFFF;" vertex="1" parent="woSUaVrUEuRAHz5BIxBc-82">
          <mxGeometry width="90" height="40" as="geometry" />
        </mxCell>
        <mxCell id="woSUaVrUEuRAHz5BIxBc-35" value="" style="endArrow=none;html=1;rounded=0;fontSize=16;entryX=0.5;entryY=0;entryDx=0;entryDy=0;exitX=0.5;exitY=1;exitDx=0;exitDy=0;" edge="1" parent="woSUaVrUEuRAHz5BIxBc-82" source="woSUaVrUEuRAHz5BIxBc-34" target="woSUaVrUEuRAHz5BIxBc-34">
          <mxGeometry width="50" height="50" relative="1" as="geometry">
            <mxPoint x="-210" y="200" as="sourcePoint" />
            <mxPoint x="-160" y="150" as="targetPoint" />
          </mxGeometry>
        </mxCell>
        <mxCell id="woSUaVrUEuRAHz5BIxBc-36" value="" style="whiteSpace=wrap;html=1;aspect=fixed;fontSize=16;fillColor=#FFFFFF;" vertex="1" parent="woSUaVrUEuRAHz5BIxBc-82">
          <mxGeometry x="90" width="40" height="40" as="geometry" />
        </mxCell>
        <mxCell id="woSUaVrUEuRAHz5BIxBc-37" value="10&lt;span style=&quot;color: rgba(0, 0, 0, 0); font-family: monospace; font-size: 0px; text-align: start;&quot;&gt;%3CmxGraphModel%3E%3Croot%3E%3CmxCell%20id%3D%220%22%2F%3E%3CmxCell%20id%3D%221%22%20parent%3D%220%22%2F%3E%3CmxCell%20id%3D%222%22%20value%3D%22%26lt%3Bfont%20style%3D%26quot%3Bfont-size%3A%2014px%3B%26quot%3B%26gt%3B10%26lt%3Bbr%26gt%3B%26lt%3B%2Ffont%26gt%3B%22%20style%3D%22text%3Bhtml%3D1%3BstrokeColor%3Dnone%3BfillColor%3Dnone%3Balign%3Dcenter%3BverticalAlign%3Dmiddle%3BwhiteSpace%3Dwrap%3Brounded%3D0%3B%22%20vertex%3D%221%22%20parent%3D%221%22%3E%3CmxGeometry%20x%3D%22480%22%20y%3D%22207.5%22%20width%3D%2230%22%20height%3D%2225%22%20as%3D%22geometry%22%2F%3E%3C%2FmxCell%3E%3C%2Froot%3E%3C%2FmxGraphModel%3E&lt;/span&gt;" style="text;html=1;strokeColor=none;fillColor=none;align=center;verticalAlign=middle;whiteSpace=wrap;rounded=0;fontSize=16;" vertex="1" parent="woSUaVrUEuRAHz5BIxBc-82">
          <mxGeometry y="5" width="40" height="30" as="geometry" />
        </mxCell>
        <mxCell id="woSUaVrUEuRAHz5BIxBc-38" value="20" style="text;html=1;strokeColor=none;fillColor=none;align=center;verticalAlign=middle;whiteSpace=wrap;rounded=0;fontSize=16;" vertex="1" parent="woSUaVrUEuRAHz5BIxBc-82">
          <mxGeometry x="50" y="10" width="30" height="20" as="geometry" />
        </mxCell>
        <mxCell id="woSUaVrUEuRAHz5BIxBc-39" value="30" style="text;html=1;strokeColor=none;fillColor=none;align=center;verticalAlign=middle;whiteSpace=wrap;rounded=0;fontSize=16;" vertex="1" parent="woSUaVrUEuRAHz5BIxBc-82">
          <mxGeometry x="90" y="10" width="40" height="20" as="geometry" />
        </mxCell>
        <mxCell id="woSUaVrUEuRAHz5BIxBc-46" value="" style="whiteSpace=wrap;html=1;aspect=fixed;fontSize=16;fillColor=#FFFFFF;" vertex="1" parent="1">
          <mxGeometry x="450" y="312" width="40" height="40" as="geometry" />
        </mxCell>
        <mxCell id="woSUaVrUEuRAHz5BIxBc-47" value="" style="whiteSpace=wrap;html=1;aspect=fixed;fontSize=16;fillColor=#FFFFFF;" vertex="1" parent="1">
          <mxGeometry x="450" y="352" width="40" height="40" as="geometry" />
        </mxCell>
        <mxCell id="woSUaVrUEuRAHz5BIxBc-48" value="" style="whiteSpace=wrap;html=1;aspect=fixed;fontSize=16;fillColor=#FFFFFF;" vertex="1" parent="1">
          <mxGeometry x="450" y="392" width="40" height="40" as="geometry" />
        </mxCell>
        <mxCell id="woSUaVrUEuRAHz5BIxBc-49" value="0" style="text;html=1;strokeColor=none;fillColor=none;align=center;verticalAlign=middle;whiteSpace=wrap;rounded=0;fontSize=16;" vertex="1" parent="1">
          <mxGeometry x="415" y="317" width="35" height="30" as="geometry" />
        </mxCell>
        <mxCell id="woSUaVrUEuRAHz5BIxBc-50" value="1" style="text;html=1;strokeColor=none;fillColor=none;align=center;verticalAlign=middle;whiteSpace=wrap;rounded=0;fontSize=16;" vertex="1" parent="1">
          <mxGeometry x="415" y="357" width="35" height="30" as="geometry" />
        </mxCell>
        <mxCell id="woSUaVrUEuRAHz5BIxBc-51" value="2" style="text;html=1;strokeColor=none;fillColor=none;align=center;verticalAlign=middle;whiteSpace=wrap;rounded=0;fontSize=16;" vertex="1" parent="1">
          <mxGeometry x="415" y="397" width="35" height="30" as="geometry" />
        </mxCell>
        <mxCell id="woSUaVrUEuRAHz5BIxBc-52" value="" style="ellipse;whiteSpace=wrap;html=1;aspect=fixed;fontSize=16;fillColor=#000000;" vertex="1" parent="1">
          <mxGeometry x="465" y="327" width="10" height="10" as="geometry" />
        </mxCell>
        <mxCell id="woSUaVrUEuRAHz5BIxBc-53" value="" style="ellipse;whiteSpace=wrap;html=1;aspect=fixed;fontSize=16;fillColor=#000000;" vertex="1" parent="1">
          <mxGeometry x="465" y="367" width="10" height="10" as="geometry" />
        </mxCell>
        <mxCell id="woSUaVrUEuRAHz5BIxBc-54" value="" style="ellipse;whiteSpace=wrap;html=1;aspect=fixed;fontSize=16;fillColor=#000000;" vertex="1" parent="1">
          <mxGeometry x="465" y="407" width="10" height="10" as="geometry" />
        </mxCell>
        <mxCell id="woSUaVrUEuRAHz5BIxBc-90" value="" style="rounded=0;whiteSpace=wrap;html=1;fontSize=16;fillColor=#FFFFFF;" vertex="1" parent="1">
          <mxGeometry x="570" y="300" width="70" height="30" as="geometry" />
        </mxCell>
        <mxCell id="woSUaVrUEuRAHz5BIxBc-91" value="" style="endArrow=none;html=1;rounded=0;fontSize=16;entryX=0.5;entryY=0;entryDx=0;entryDy=0;exitX=0.5;exitY=1;exitDx=0;exitDy=0;" edge="1" parent="1" source="woSUaVrUEuRAHz5BIxBc-90" target="woSUaVrUEuRAHz5BIxBc-90">
          <mxGeometry width="50" height="50" relative="1" as="geometry">
            <mxPoint x="450" y="390" as="sourcePoint" />
            <mxPoint x="500" y="340" as="targetPoint" />
          </mxGeometry>
        </mxCell>
        <mxCell id="woSUaVrUEuRAHz5BIxBc-92" value="" style="rounded=0;whiteSpace=wrap;html=1;fontSize=16;fillColor=#FFFFFF;" vertex="1" parent="1">
          <mxGeometry x="640" y="300" width="30" height="30" as="geometry" />
        </mxCell>
        <mxCell id="woSUaVrUEuRAHz5BIxBc-93" value="" style="rounded=0;whiteSpace=wrap;html=1;fontSize=16;fillColor=#FFFFFF;" vertex="1" parent="1">
          <mxGeometry x="570" y="357" width="70" height="30" as="geometry" />
        </mxCell>
        <mxCell id="woSUaVrUEuRAHz5BIxBc-94" value="" style="endArrow=none;html=1;rounded=0;fontSize=16;entryX=0.5;entryY=0;entryDx=0;entryDy=0;exitX=0.5;exitY=1;exitDx=0;exitDy=0;" edge="1" parent="1" source="woSUaVrUEuRAHz5BIxBc-93" target="woSUaVrUEuRAHz5BIxBc-93">
          <mxGeometry width="50" height="50" relative="1" as="geometry">
            <mxPoint x="450" y="447" as="sourcePoint" />
            <mxPoint x="500" y="397" as="targetPoint" />
          </mxGeometry>
        </mxCell>
        <mxCell id="woSUaVrUEuRAHz5BIxBc-96" value="" style="rounded=0;whiteSpace=wrap;html=1;fontSize=16;fillColor=#FFFFFF;" vertex="1" parent="1">
          <mxGeometry x="640" y="357" width="70" height="30" as="geometry" />
        </mxCell>
        <mxCell id="woSUaVrUEuRAHz5BIxBc-97" value="" style="endArrow=none;html=1;rounded=0;fontSize=16;entryX=0.5;entryY=0;entryDx=0;entryDy=0;exitX=0.5;exitY=1;exitDx=0;exitDy=0;" edge="1" parent="1" source="woSUaVrUEuRAHz5BIxBc-96" target="woSUaVrUEuRAHz5BIxBc-96">
          <mxGeometry width="50" height="50" relative="1" as="geometry">
            <mxPoint x="520" y="447" as="sourcePoint" />
            <mxPoint x="570" y="397" as="targetPoint" />
          </mxGeometry>
        </mxCell>
        <mxCell id="woSUaVrUEuRAHz5BIxBc-98" value="" style="rounded=0;whiteSpace=wrap;html=1;fontSize=16;fillColor=#FFFFFF;" vertex="1" parent="1">
          <mxGeometry x="570" y="410" width="70" height="30" as="geometry" />
        </mxCell>
        <mxCell id="woSUaVrUEuRAHz5BIxBc-99" value="" style="endArrow=none;html=1;rounded=0;fontSize=16;entryX=0.5;entryY=0;entryDx=0;entryDy=0;exitX=0.5;exitY=1;exitDx=0;exitDy=0;" edge="1" parent="1" source="woSUaVrUEuRAHz5BIxBc-98" target="woSUaVrUEuRAHz5BIxBc-98">
          <mxGeometry width="50" height="50" relative="1" as="geometry">
            <mxPoint x="450" y="500" as="sourcePoint" />
            <mxPoint x="500" y="450" as="targetPoint" />
          </mxGeometry>
        </mxCell>
        <mxCell id="woSUaVrUEuRAHz5BIxBc-100" value="" style="rounded=0;whiteSpace=wrap;html=1;fontSize=16;fillColor=#FFFFFF;" vertex="1" parent="1">
          <mxGeometry x="640" y="410" width="30" height="30" as="geometry" />
        </mxCell>
        <mxCell id="woSUaVrUEuRAHz5BIxBc-101" value="" style="rounded=0;whiteSpace=wrap;html=1;fontSize=16;fillColor=#FFFFFF;" vertex="1" parent="1">
          <mxGeometry x="670" y="410" width="70" height="30" as="geometry" />
        </mxCell>
        <mxCell id="woSUaVrUEuRAHz5BIxBc-102" value="" style="endArrow=none;html=1;rounded=0;fontSize=16;entryX=0.5;entryY=0;entryDx=0;entryDy=0;exitX=0.5;exitY=1;exitDx=0;exitDy=0;" edge="1" parent="1" source="woSUaVrUEuRAHz5BIxBc-101" target="woSUaVrUEuRAHz5BIxBc-101">
          <mxGeometry width="50" height="50" relative="1" as="geometry">
            <mxPoint x="615" y="397" as="sourcePoint" />
            <mxPoint x="615" y="367" as="targetPoint" />
          </mxGeometry>
        </mxCell>
        <mxCell id="woSUaVrUEuRAHz5BIxBc-103" value="0" style="text;html=1;strokeColor=none;fillColor=none;align=center;verticalAlign=middle;whiteSpace=wrap;rounded=0;fontSize=16;" vertex="1" parent="1">
          <mxGeometry x="570" y="275" width="35" height="30" as="geometry" />
        </mxCell>
        <mxCell id="woSUaVrUEuRAHz5BIxBc-104" value="1" style="text;html=1;strokeColor=none;fillColor=none;align=center;verticalAlign=middle;whiteSpace=wrap;rounded=0;fontSize=16;" vertex="1" parent="1">
          <mxGeometry x="605" y="275" width="35" height="30" as="geometry" />
        </mxCell>
        <mxCell id="woSUaVrUEuRAHz5BIxBc-105" value="2" style="text;html=1;strokeColor=none;fillColor=none;align=center;verticalAlign=middle;whiteSpace=wrap;rounded=0;fontSize=16;" vertex="1" parent="1">
          <mxGeometry x="637.5" y="275" width="35" height="30" as="geometry" />
        </mxCell>
        <mxCell id="woSUaVrUEuRAHz5BIxBc-106" value="0" style="text;html=1;strokeColor=none;fillColor=none;align=center;verticalAlign=middle;whiteSpace=wrap;rounded=0;fontSize=16;" vertex="1" parent="1">
          <mxGeometry x="570" y="330" width="35" height="30" as="geometry" />
        </mxCell>
        <mxCell id="woSUaVrUEuRAHz5BIxBc-107" value="1" style="text;html=1;strokeColor=none;fillColor=none;align=center;verticalAlign=middle;whiteSpace=wrap;rounded=0;fontSize=16;" vertex="1" parent="1">
          <mxGeometry x="605" y="330" width="35" height="30" as="geometry" />
        </mxCell>
        <mxCell id="woSUaVrUEuRAHz5BIxBc-108" value="2" style="text;html=1;strokeColor=none;fillColor=none;align=center;verticalAlign=middle;whiteSpace=wrap;rounded=0;fontSize=16;" vertex="1" parent="1">
          <mxGeometry x="640" y="330" width="35" height="30" as="geometry" />
        </mxCell>
        <mxCell id="woSUaVrUEuRAHz5BIxBc-109" value="3" style="text;html=1;strokeColor=none;fillColor=none;align=center;verticalAlign=middle;whiteSpace=wrap;rounded=0;fontSize=16;" vertex="1" parent="1">
          <mxGeometry x="675" y="330" width="35" height="30" as="geometry" />
        </mxCell>
        <mxCell id="woSUaVrUEuRAHz5BIxBc-110" value="0" style="text;html=1;strokeColor=none;fillColor=none;align=center;verticalAlign=middle;whiteSpace=wrap;rounded=0;fontSize=16;" vertex="1" parent="1">
          <mxGeometry x="570" y="387" width="35" height="30" as="geometry" />
        </mxCell>
        <mxCell id="woSUaVrUEuRAHz5BIxBc-111" value="1" style="text;html=1;strokeColor=none;fillColor=none;align=center;verticalAlign=middle;whiteSpace=wrap;rounded=0;fontSize=16;" vertex="1" parent="1">
          <mxGeometry x="605" y="387" width="35" height="30" as="geometry" />
        </mxCell>
        <mxCell id="woSUaVrUEuRAHz5BIxBc-112" value="2" style="text;html=1;strokeColor=none;fillColor=none;align=center;verticalAlign=middle;whiteSpace=wrap;rounded=0;fontSize=16;" vertex="1" parent="1">
          <mxGeometry x="637.5" y="387" width="35" height="30" as="geometry" />
        </mxCell>
        <mxCell id="woSUaVrUEuRAHz5BIxBc-113" value="3" style="text;html=1;strokeColor=none;fillColor=none;align=center;verticalAlign=middle;whiteSpace=wrap;rounded=0;fontSize=16;" vertex="1" parent="1">
          <mxGeometry x="670" y="387" width="35" height="30" as="geometry" />
        </mxCell>
        <mxCell id="woSUaVrUEuRAHz5BIxBc-114" value="4" style="text;html=1;strokeColor=none;fillColor=none;align=center;verticalAlign=middle;whiteSpace=wrap;rounded=0;fontSize=16;" vertex="1" parent="1">
          <mxGeometry x="705" y="387" width="35" height="30" as="geometry" />
        </mxCell>
        <mxCell id="woSUaVrUEuRAHz5BIxBc-115" value="" style="curved=1;endArrow=classic;html=1;rounded=0;fontSize=16;exitX=1;exitY=0.5;exitDx=0;exitDy=0;entryX=0.5;entryY=0;entryDx=0;entryDy=0;" edge="1" parent="1" source="woSUaVrUEuRAHz5BIxBc-23" target="woSUaVrUEuRAHz5BIxBc-52">
          <mxGeometry width="50" height="50" relative="1" as="geometry">
            <mxPoint x="450" y="400" as="sourcePoint" />
            <mxPoint x="470" y="310" as="targetPoint" />
            <Array as="points">
              <mxPoint x="350" y="230" />
            </Array>
          </mxGeometry>
        </mxCell>
        <mxCell id="woSUaVrUEuRAHz5BIxBc-116" value="" style="curved=1;endArrow=classic;html=1;rounded=0;fontSize=16;exitX=1;exitY=0;exitDx=0;exitDy=0;entryX=0;entryY=0.5;entryDx=0;entryDy=0;" edge="1" parent="1" source="woSUaVrUEuRAHz5BIxBc-52" target="woSUaVrUEuRAHz5BIxBc-90">
          <mxGeometry width="50" height="50" relative="1" as="geometry">
            <mxPoint x="450" y="400" as="sourcePoint" />
            <mxPoint x="500" y="350" as="targetPoint" />
            <Array as="points">
              <mxPoint x="500" y="320" />
              <mxPoint x="540" y="310" />
            </Array>
          </mxGeometry>
        </mxCell>
        <mxCell id="woSUaVrUEuRAHz5BIxBc-117" value="" style="curved=1;endArrow=classic;html=1;rounded=0;fontSize=16;exitX=1;exitY=0;exitDx=0;exitDy=0;entryX=0;entryY=0.5;entryDx=0;entryDy=0;" edge="1" parent="1" source="woSUaVrUEuRAHz5BIxBc-53" target="woSUaVrUEuRAHz5BIxBc-93">
          <mxGeometry width="50" height="50" relative="1" as="geometry">
            <mxPoint x="483.53553390593265" y="338.46446609406735" as="sourcePoint" />
            <mxPoint x="580" y="325" as="targetPoint" />
            <Array as="points">
              <mxPoint x="540" y="350" />
            </Array>
          </mxGeometry>
        </mxCell>
        <mxCell id="woSUaVrUEuRAHz5BIxBc-118" value="" style="curved=1;endArrow=classic;html=1;rounded=0;fontSize=16;exitX=1;exitY=0;exitDx=0;exitDy=0;entryX=0;entryY=0.5;entryDx=0;entryDy=0;" edge="1" parent="1" source="woSUaVrUEuRAHz5BIxBc-54" target="woSUaVrUEuRAHz5BIxBc-98">
          <mxGeometry width="50" height="50" relative="1" as="geometry">
            <mxPoint x="483.53553390593265" y="378.46446609406735" as="sourcePoint" />
            <mxPoint x="580" y="382" as="targetPoint" />
            <Array as="points">
              <mxPoint x="540" y="412" />
            </Array>
          </mxGeometry>
        </mxCell>
        <mxCell id="woSUaVrUEuRAHz5BIxBc-129" value="" style="group" vertex="1" connectable="0" parent="1">
          <mxGeometry x="500" y="510" width="170" height="110" as="geometry" />
        </mxCell>
        <mxCell id="woSUaVrUEuRAHz5BIxBc-121" value="" style="rounded=0;whiteSpace=wrap;html=1;fontSize=16;fillColor=#FFFFFF;" vertex="1" parent="woSUaVrUEuRAHz5BIxBc-129">
          <mxGeometry width="170" height="110" as="geometry" />
        </mxCell>
        <mxCell id="woSUaVrUEuRAHz5BIxBc-122" value="" style="endArrow=none;html=1;rounded=0;fontSize=16;entryX=1;entryY=0.75;entryDx=0;entryDy=0;exitX=0;exitY=0.75;exitDx=0;exitDy=0;" edge="1" parent="woSUaVrUEuRAHz5BIxBc-129" source="woSUaVrUEuRAHz5BIxBc-121" target="woSUaVrUEuRAHz5BIxBc-121">
          <mxGeometry width="50" height="50" relative="1" as="geometry">
            <mxPoint x="-50" y="-80" as="sourcePoint" />
            <mxPoint y="-130" as="targetPoint" />
          </mxGeometry>
        </mxCell>
        <mxCell id="woSUaVrUEuRAHz5BIxBc-123" value="1" style="text;html=1;strokeColor=none;fillColor=none;align=center;verticalAlign=middle;whiteSpace=wrap;rounded=0;fontSize=16;" vertex="1" parent="woSUaVrUEuRAHz5BIxBc-129">
          <mxGeometry x="67.5" y="80" width="35" height="30" as="geometry" />
        </mxCell>
        <mxCell id="woSUaVrUEuRAHz5BIxBc-125" value="&lt;font style=&quot;font-size: 14px;&quot;&gt;classId&lt;br&gt;&lt;/font&gt;" style="text;html=1;strokeColor=none;fillColor=none;align=center;verticalAlign=middle;whiteSpace=wrap;rounded=0;" vertex="1" parent="woSUaVrUEuRAHz5BIxBc-129">
          <mxGeometry x="60" y="20" width="60" height="30" as="geometry" />
        </mxCell>
        <mxCell id="woSUaVrUEuRAHz5BIxBc-128" value="" style="group" vertex="1" connectable="0" parent="woSUaVrUEuRAHz5BIxBc-129">
          <mxGeometry x="30" y="20" width="30" height="30" as="geometry" />
        </mxCell>
        <mxCell id="woSUaVrUEuRAHz5BIxBc-126" value="" style="whiteSpace=wrap;html=1;aspect=fixed;fontSize=14;" vertex="1" parent="woSUaVrUEuRAHz5BIxBc-128">
          <mxGeometry width="30" height="30" as="geometry" />
        </mxCell>
        <mxCell id="woSUaVrUEuRAHz5BIxBc-127" value="" style="ellipse;whiteSpace=wrap;html=1;aspect=fixed;fontSize=16;fillColor=#000000;" vertex="1" parent="woSUaVrUEuRAHz5BIxBc-128">
          <mxGeometry x="10" y="10" width="10" height="10" as="geometry" />
        </mxCell>
        <mxCell id="woSUaVrUEuRAHz5BIxBc-130" value="" style="group" vertex="1" connectable="0" parent="1">
          <mxGeometry x="500" y="640" width="170" height="110" as="geometry" />
        </mxCell>
        <mxCell id="woSUaVrUEuRAHz5BIxBc-131" value="" style="rounded=0;whiteSpace=wrap;html=1;fontSize=16;fillColor=#FFFFFF;" vertex="1" parent="woSUaVrUEuRAHz5BIxBc-130">
          <mxGeometry width="170" height="110" as="geometry" />
        </mxCell>
        <mxCell id="woSUaVrUEuRAHz5BIxBc-132" value="" style="endArrow=none;html=1;rounded=0;fontSize=16;entryX=1;entryY=0.75;entryDx=0;entryDy=0;exitX=0;exitY=0.75;exitDx=0;exitDy=0;" edge="1" parent="woSUaVrUEuRAHz5BIxBc-130" source="woSUaVrUEuRAHz5BIxBc-131" target="woSUaVrUEuRAHz5BIxBc-131">
          <mxGeometry width="50" height="50" relative="1" as="geometry">
            <mxPoint x="-50" y="-80" as="sourcePoint" />
            <mxPoint y="-130" as="targetPoint" />
          </mxGeometry>
        </mxCell>
        <mxCell id="woSUaVrUEuRAHz5BIxBc-133" value="2" style="text;html=1;strokeColor=none;fillColor=none;align=center;verticalAlign=middle;whiteSpace=wrap;rounded=0;fontSize=16;" vertex="1" parent="woSUaVrUEuRAHz5BIxBc-130">
          <mxGeometry x="67.5" y="80" width="35" height="30" as="geometry" />
        </mxCell>
        <mxCell id="woSUaVrUEuRAHz5BIxBc-134" value="&lt;font style=&quot;font-size: 14px;&quot;&gt;classId&lt;br&gt;&lt;/font&gt;" style="text;html=1;strokeColor=none;fillColor=none;align=center;verticalAlign=middle;whiteSpace=wrap;rounded=0;" vertex="1" parent="woSUaVrUEuRAHz5BIxBc-130">
          <mxGeometry x="60" y="20" width="60" height="30" as="geometry" />
        </mxCell>
        <mxCell id="woSUaVrUEuRAHz5BIxBc-135" value="" style="group" vertex="1" connectable="0" parent="woSUaVrUEuRAHz5BIxBc-130">
          <mxGeometry x="30" y="20" width="30" height="30" as="geometry" />
        </mxCell>
        <mxCell id="woSUaVrUEuRAHz5BIxBc-136" value="" style="whiteSpace=wrap;html=1;aspect=fixed;fontSize=14;" vertex="1" parent="woSUaVrUEuRAHz5BIxBc-135">
          <mxGeometry width="30" height="30" as="geometry" />
        </mxCell>
        <mxCell id="woSUaVrUEuRAHz5BIxBc-137" value="" style="ellipse;whiteSpace=wrap;html=1;aspect=fixed;fontSize=16;fillColor=#000000;" vertex="1" parent="woSUaVrUEuRAHz5BIxBc-135">
          <mxGeometry x="10" y="10" width="10" height="10" as="geometry" />
        </mxCell>
        <mxCell id="woSUaVrUEuRAHz5BIxBc-138" value="" style="curved=1;endArrow=classic;html=1;rounded=0;fontSize=16;exitX=1;exitY=0.5;exitDx=0;exitDy=0;entryX=0;entryY=0.5;entryDx=0;entryDy=0;" edge="1" parent="1" source="woSUaVrUEuRAHz5BIxBc-24" target="woSUaVrUEuRAHz5BIxBc-126">
          <mxGeometry width="50" height="50" relative="1" as="geometry">
            <mxPoint x="450" y="510" as="sourcePoint" />
            <mxPoint x="500" y="460" as="targetPoint" />
            <Array as="points">
              <mxPoint x="370" y="340" />
              <mxPoint x="450" y="520" />
            </Array>
          </mxGeometry>
        </mxCell>
        <mxCell id="woSUaVrUEuRAHz5BIxBc-139" value="" style="curved=1;endArrow=classic;html=1;rounded=0;fontSize=16;exitX=1;exitY=0.5;exitDx=0;exitDy=0;entryX=0;entryY=0.5;entryDx=0;entryDy=0;" edge="1" parent="1" source="woSUaVrUEuRAHz5BIxBc-25" target="woSUaVrUEuRAHz5BIxBc-136">
          <mxGeometry width="50" height="50" relative="1" as="geometry">
            <mxPoint x="230" y="432" as="sourcePoint" />
            <mxPoint x="525" y="662" as="targetPoint" />
            <Array as="points">
              <mxPoint x="400" y="350" />
              <mxPoint x="445" y="637" />
            </Array>
          </mxGeometry>
        </mxCell>
      </root>
    </mxGraphModel>
  </diagram>
</mxfile>
